PathFileType	4	(X/Y/Z)	C:/Users/beibeiliu/ov580/test_trc/User2\sequence.17_training_dense_left.trc
DataRate	CameraRate	NumFrames	NumMarkers	Units	OrigDataRate	OrigDataStartFrame	OrigNumFrames
120	120	17	19	mm	120	55	438
Frame#	Time	ThumbCMC			ThumbMCP			ThumbIP			ThumbTip			IndexMCP			IndexPIP			IndexTip			MiddleMCP			MiddlePIP			MiddleTip			RingMCP			RingPIP			RingTip			PinkyMCP			PinkyPIP			PinkyTip			BackHand1			BackHand2			BackHand3	
		X0	Y0	Z0	X1	Y1	Z1	X2	Y2	Z2	X3	Y3	Z3	X4	Y4	Z4	X5	Y5	Z5	X6	Y6	Z6	X7	Y7	Z7	X8	Y8	Z8	X9	Y9	Z9	X10	Y10	Z10	X11	Y11	Z11	X12	Y12	Z12	X13	Y13	Z13	X14	Y14	Z14	X15	Y15	Z15	X16	Y16	Z16	X17	Y17	Z17	X18	Y18	Z18	
54	0.45	-134.87	-30.8318	53.0198	-113.683	-42.1194	40.3946	-86.2818	-52.8467	19.2066	-70.776	-63.965	8.15059	-145.879	-25.8643	-27.4585	-136.302	-27.7202	-57.3157	-131.421	-30.5571	-79.2735	-176.232	-23.6696	-37.3241	-172.238	-28.5646	-70.5965	-173.144	-33.2884	-101.054	-202.99	-31.3091	-28.8969	-208.798	-35.8607	-58.0122	-207.634	-41.0854	-83.9313	-223.196	-40.7492	-13.9412	-231.785	-45.2628	-36.4052	-239.609	-45.6515	-59.1163	-201.457	-16.2534	24.0111	-203.659	-8.52041	56.3011	-163.782	-10.2561	37.2299	
55	0.458333	-137.287	-32.4745	54.2273	-111.372	-43.3238	38.5816	-89.3255	-54.6368	18.9276	-66.3041	-63.8706	8.56518	-147.228	-26.3945	-25.7536	-138.202	-29.3818	-54.8958	-132.264	-31.038	-80.9173	-173.138	-23.9173	-36.7026	-170.884	-27.5367	-69.6428	-175.769	-33.0009	-97.1699	-198.926	-30.6743	-27.5374	-207.178	-35.7678	-59.6566	-207.978	-40.9948	-84.1586	-224.043	-40.4565	-11.8005	-229.84	-45.131	-34.2753	-243.626	-45.7533	-60.3019	-197.83	-17.8753	25.0645	-199.11	-7.86349	53.8765	-164.825	-8.03121	39.5726	
56	0.466667	-135.227	-31.7862	53.0672	-110.539	-42.7007	39.8661	-85.6686	-53.6333	19.8298	-67.9604	-64.0731	11.0786	-144.261	-26.0691	-27.3438	-135.639	-29.4493	-53.1964	-130.004	-31.3434	-78.0217	-173.251	-23.5681	-38.4039	-173.554	-28.6713	-70.5451	-176.813	-34.3355	-100.968	-199.885	-31.0894	-27.2781	-207.171	-36.2709	-58.9614	-206.335	-41.3017	-86.9132	-220.655	-40.7343	-9.16242	-229.707	-45.0772	-32.9615	-242.683	-44.9807	-57.9697	-201.82	-17.3817	21.0243	-202.635	-6.08939	56.4038	-162.939	-10.9091	36.2969	
57	0.475	-137.924	-32.1177	56.8895	-114.681	-42.9005	41.4328	-90.4033	-55.3972	17.4555	-71.7958	-65.1638	7.76367	-143.61	-27.2576	-29.2911	-138.405	-29.5191	-55.1574	-130.799	-32.1269	-81.1931	-175.061	-23.6309	-37.7759	-174.513	-28.0892	-65.8591	-175.777	-35.0639	-101.654	-200.202	-31.167	-32.0732	-204.502	-35.0284	-57.7846	-206.607	-41.4079	-82.7369	-223.058	-41.2953	-10.0353	-234.654	-45.0807	-35.4318	-243.017	-43.1798	-55.4152	-201.878	-19.5848	24.5966	-198.452	-6.95745	54.7919	-165.496	-9.67164	38.5603	
58	0.483333	-133.97	-30.7721	57.7705	-114.167	-43.0471	40.6733	-89.5317	-53.4262	21.7444	-70.0652	-64.0169	6.97686	-145.142	-26.391	-26.4607	-138.311	-29.0163	-53.0483	-131.289	-31.2483	-83.8663	-175.5	-23.9666	-35.0891	-173.487	-28.9083	-71.0138	-174.058	-33.8982	-101.687	-201.13	-30.5025	-28.0929	-206.269	-35.6436	-57.4639	-206.853	-40.8316	-82.2635	-223.871	-40.7957	-10.349	-231.171	-44.8135	-33.9697	-242.16	-43.4717	-58.1376	-197.322	-18.5391	21.9715	-200.91	-7.71269	56.1914	-166.163	-9.18081	36.881	
59	0.491667	-133.567	-30.8872	58.6174	-113.385	-43.3449	40.6991	-89.3465	-54.106	20.7891	-71.6316	-65.3926	5.11861	-141.723	-25.846	-29.9441	-132.713	-28.7148	-55.9342	-132.127	-31.4414	-79.3211	-175.563	-23.2879	-38.4919	-172.594	-27.3576	-66.8881	-177.089	-33.9759	-98.9249	-201.543	-30.4834	-31.3736	-203.988	-35.4271	-58.9866	-209.149	-40.2471	-87.6538	-222.403	-41.873	-8.72713	-234.267	-45.3445	-37.4782	-240.311	-45.5195	-56.517	-202.512	-17.6798	26.44	-202.63	-6.64465	55.1531	-162.331	-8.57335	37.3519	
60	0.5	-133.954	-30.5939	58.3299	-114.514	-42.8872	41.0251	-86.9193	-54.6527	17.67	-72.6232	-64.7142	5.58177	-145.571	-26.7127	-24.8895	-138.131	-28.5862	-53.043	-133.102	-30.6673	-83.7816	-171.587	-23.4243	-36.9118	-173.757	-28.377	-65.9262	-172.114	-33.1269	-101.457	-201.641	-30.6976	-30.1372	-207.419	-35.8375	-57.4881	-207.073	-40.7199	-84.001	-221.295	-41.7319	-10.5946	-233.841	-45.7256	-34.0658	-242.499	-42.649	-54.7109	-199.266	-18.5967	22.0468	-200.23	-7.43945	57.0596	-167.973	-10.8608	37.741	
61	0.508333	-133.564	-31.5654	56.8126	-112.26	-43.692	41.6371	-87.4811	-55.0858	21.5709	-68.5725	-65.1411	6.97405	-148.089	-26.8295	-26.0154	-139.261	-28.6026	-54.6138	-130.191	-30.763	-80.9417	-173.221	-24.8287	-38.7092	-174.958	-29.4872	-70.1608	-174.219	-33.9791	-101.033	-204.517	-31.9912	-28.5987	-206	-35.697	-57.1755	-211.185	-41.2575	-85.9457	-226.177	-41.2885	-11.4839	-234.103	-45.0862	-35.6943	-240.439	-44.4976	-57.1023	-201.459	-19.4774	21.8788	-200.926	-8.96926	53.8199	-162.898	-8.38835	39.2541	
62	0.516667	-134.452	-31.9636	57.8142	-111.947	-43.9656	38.6202	-90.1155	-55.068	22.0296	-70.2172	-65.0372	5.28035	-145.456	-26.6131	-28.8744	-137.698	-28.2647	-53.0587	-132.964	-31.5134	-83.6783	-173.392	-24.8606	-36.8213	-171.86	-29.255	-70.862	-177.002	-33.48	-99.8694	-203.475	-31.8291	-30.9616	-204.366	-34.9134	-56.2932	-209.561	-41.5037	-87.3589	-224.051	-41.082	-10.7562	-234.175	-45.1023	-34.9774	-243.063	-42.5804	-57.826	-198.807	-16.6033	26.6247	-198.414	-8.56358	55.0025	-164.548	-10.1296	38.3181	
63	0.525	-135.656	-32.5649	56.613	-112.629	-43.5077	40.4565	-89.9782	-54.57	20.5808	-71.2551	-65.556	5.59891	-145.165	-26.9951	-27.5285	-137.218	-28.7314	-55.9696	-130.897	-31.2407	-83.3122	-174.588	-24.9372	-38.5565	-172.628	-28.937	-67.6549	-172.576	-34.2499	-100.165	-201.514	-31.2979	-27.8047	-204.409	-35.7092	-57.7969	-209.863	-41.418	-85.0186	-220.816	-40.5921	-9.25272	-234.089	-45.1861	-33.5748	-239.069	-43.1163	-58.9727	-197.425	-17.7816	25.2674	-203.752	-6.67028	56.3881	-163.574	-9.01527	36.0978	
64	0.533333	-137.967	-31.6538	54.7705	-113.035	-43.518	43.508	-85.8303	-53.9596	18.3128	-72.0487	-65.6126	7.00188	-145.541	-26.4241	-29.6675	-136.684	-28.4189	-56.9768	-129.693	-31.4117	-79.5136	-171.942	-23.5937	-37.5032	-173.364	-28.9451	-70.4844	-174.788	-33.9719	-101.104	-204.028	-30.5221	-30.5793	-206.016	-35.0245	-56.3161	-207.647	-41.5679	-86.0891	-220.572	-41.1786	-11.5483	-232.991	-44.3945	-35.2445	-243.526	-43.4223	-55.3554	-199.951	-17.5399	24.7134	-201.744	-8.58405	55.4754	-164.125	-11.0929	37.6316	
65	0.541667	-136.853	-31.7584	55.3331	-111.869	-43.1003	37.9533	-89.2364	-54.8536	23.0667	-70.7199	-64.4241	8.24829	-145.042	-25.8616	-24.5254	-138.077	-29.0605	-55.6384	-131.312	-30.5267	-83.2421	-171.712	-23.5156	-37.4807	-175.64	-28.8315	-69.5085	-178.031	-33.2298	-97.286	-199	-31.0618	-31.4262	-204.847	-35.6998	-58.4409	-209.666	-41.1863	-85.424	-221.557	-40.8912	-14.1248	-235.223	-45.3288	-34.2496	-238.536	-42.2406	-58.4696	-199.648	-18.1274	26.8969	-204.051	-6.63913	52.517	-167.09	-8.83501	38.2583	
66	0.55	-134.529	-32.0749	55.6244	-110.618	-42.4445	42.2542	-87.1825	-54.4351	20.8928	-67.8339	-64.3963	9.0074	-143.796	-26.378	-24.0348	-136.439	-28.8192	-53.3769	-130.084	-31.6864	-81.4647	-174.043	-23.5033	-38.0222	-171.425	-27.1961	-65.1755	-175.851	-34.1147	-100.005	-200.684	-31.4223	-31.1094	-207.781	-34.8612	-56.7395	-207.605	-40.3704	-82.5752	-222.184	-40.9151	-9.02167	-231.339	-45.7296	-34.2211	-243.3	-44.7517	-55.5975	-198.415	-16.8514	26.5903	-202.582	-8.87771	53.3744	-165.356	-8.49945	38.7171	
67	0.558333	-133.004	-31.0124	55.0409	-111.175	-43.1692	41.9479	-84.6059	-53.6743	20.6351	-70.0009	-65.4709	4.80653	-146.651	-26.8979	-26.0449	-137.063	-29.3839	-52.814	-130.483	-31.2484	-80.0234	-174.953	-24.8984	-36.4103	-174.444	-28.6023	-68.7484	-177.559	-33.9138	-98.0543	-200.977	-31.21	-30.1472	-206.433	-36.1986	-59.118	-207.778	-41.4381	-85.694	-224.075	-41.4043	-13.2029	-234.458	-45.6448	-36.4983	-241.539	-45.6378	-60.6628	-199.541	-16.2904	25.5364	-200.458	-9.4786	52.7832	-164.924	-9.6781	37.7789	
68	0.566667	-133.178	-31.6943	56.5526	-109.875	-43.4439	42.3405	-88.8002	-53.9789	22.4357	-68.6204	-65.3348	7.9904	-144.391	-26.6952	-28.4355	-136.973	-28.3255	-57.6227	-134.77	-31.5696	-81.8977	-175.238	-23.3496	-36.7563	-176.138	-28.1975	-66.3388	-174.823	-33.589	-97.2781	-199.258	-30.2868	-28.451	-205.955	-35.3001	-56.783	-211.01	-40.5976	-82.6029	-225.613	-40.8756	-10.7526	-232.481	-44.6911	-36.0751	-238.359	-44.3652	-58.433	-198.551	-17.6716	22.5851	-203.108	-6.9859	53.661	-166.298	-11.0192	36.9299	
69	0.575	-137.029	-32.8766	57.0624	-111.614	-44.3104	39.4717	-86.5594	-54.2345	20.9081	-68.6419	-65.6296	9.74554	-141.131	-26.8044	-27.5992	-136.799	-29.7068	-57.0145	-133.855	-32.3869	-82.0926	-175.261	-24.1503	-39.3333	-176.211	-27.6321	-66.7511	-175.193	-34.1216	-100.192	-202.998	-31.4697	-29.2822	-207.942	-34.7903	-54.4148	-207.588	-40.8335	-83.1224	-225.309	-40.1805	-11.8534	-231.51	-44.3735	-35.4058	-240.409	-43.5629	-54.6672	-200.552	-16.2603	26.6021	-203.387	-7.97689	58.1522	-165.937	-11.0479	38.5536	
70	0.583333	-133.609	-32.5272	57.0692	-115.01	-44.7552	40.2724	-86.725	-54.9635	21.0606	-68.5467	-64.7177	7.7531	-141.446	-25.9787	-27.3321	-134.555	-28.0527	-50.8023	-133.289	-31.575	-83.9239	-171.542	-24.3178	-36.0661	-175.085	-28.1801	-66.8442	-171.811	-34.1625	-97.9193	-202.912	-30.6974	-28.4758	-205.087	-35.6661	-59.1059	-209.058	-41.2101	-88.0534	-225.9	-40.3497	-12.6776	-235.172	-45.0627	-32.1465	-239.613	-43.8961	-59.4467	-201.202	-17.2712	23.9362	-198.024	-8.81358	57.1001	-165.119	-11.0867	39.3408	
